<?xml version="1.0" encoding="iso-8859-1"?>
<!-- Generator: Adobe Illustrator 18.1.1, SVG Export Plug-In . SVG Version: 6.00 Build 0)  -->
<svg xmlns="http://www.w3.org/2000/svg" xmlns:xlink="http://www.w3.org/1999/xlink" version="1.1" id="Capa_1" x="0px" y="0px" viewBox="0 0 76.102 76.102" style="enable-background:new 0 0 76.102 76.102;" xml:space="preserve" width="50px" height="50px">
<path id="Warning" d="M75.576,65.789l-35.9-57.8c-0.8-1.3-2.6-1.3-3.4,0l-35.9,58c1.5-2.4-2.7,3,1.7,3.1h72  C78.076,68.989,74.776,64.789,75.576,65.789z M5.676,64.989l32.3-52.1l32.5,52.1H5.676z M40.076,26.989v16c0,1.1-0.9,2-2,2  s-2-0.9-2-2v-16c0-1.1,0.9-2,2-2S40.076,25.889,40.076,26.989z M38.176,48.989c-3.3,0-6,2.7-6,6c0,3.3,2.7,6,6,6s6-2.7,6-6  C44.076,51.689,41.376,48.989,38.176,48.989z M38.176,56.989c-1.1,0-2-0.9-2-2s0.9-2,2-2s2,0.9,2,2  C40.076,56.089,39.176,56.989,38.176,56.989z" fill="#FFDA44"/>
<g>
</g>
<g>
</g>
<g>
</g>
<g>
</g>
<g>
</g>
<g>
</g>
<g>
</g>
<g>
</g>
<g>
</g>
<g>
</g>
<g>
</g>
<g>
</g>
<g>
</g>
<g>
</g>
<g>
</g>
</svg>
