<svg width="512" height="512" xmlns="http://www.w3.org/2000/svg">

 <g>
  <title>background</title>
  <rect fill="none" id="canvas_background" height="402" width="582" y="-1" x="-1"/>
 </g>
 <g>
  <title>Layer 1</title>
  <rect rx="21" id="svg_11" height="512" width="511.851759" stroke-width="0" stroke="#000" fill="#272c34"/>
  <ellipse ry="228.663867" rx="225.284589" id="svg_12" cy="256.000002" cx="256.00001" stroke-width="10" stroke="#f23300" fill="none"/>
  <g id="svg_1">
   <path id="svg_2" fill="#FFDA44" d="m397.828064,236.436203c0,-10.803299 -8.768799,-19.562347 -19.562347,-19.562347c-10.813721,0 -19.562378,8.759048 -19.562378,19.562347c0,7.082199 3.796295,13.228439 9.432709,16.661636c-2.480133,42.474152 -27.552948,78.910889 -63.439484,97.424835c-3.580505,-3.958282 -8.704651,-6.491608 -14.461487,-6.491608l-78.249435,0c-10.803314,0 -19.562378,8.759033 -19.562378,19.562317l0,29.343536c0,10.803314 8.759064,19.562347 19.562378,19.562347l78.249435,0c10.803345,0 19.562378,-8.759033 19.562378,-19.562347l0,-23.181976c44.104553,-21.041168 75.166534,-64.901855 77.881439,-116.272568c6.020264,-3.335388 10.14917,-9.676056 10.14917,-17.046173z"/>
   <path id="svg_3" fill="#FFDA44" d="m339.140991,236.438049c0,-48.537888 -39.492737,-88.030609 -88.03064,-88.030609s-88.030624,39.492722 -88.030624,88.030609s39.492752,88.030609 88.030624,88.030609s88.03064,-39.492737 88.03064,-88.030609zm-107.593002,-0.001846c0,-10.803299 8.748672,-19.562347 19.562363,-19.562347c10.793518,0 19.562347,8.759048 19.562347,19.562347c0,10.803314 -8.768829,19.562363 -19.562347,19.562363c-10.81369,0 -19.562363,-8.759048 -19.562363,-19.562363z"/>
   <path id="svg_4" fill="#FFDA44" d="m251.110352,128.845062c5.401642,0 9.781158,-4.379524 9.781158,-9.781189l0,-9.781181c0,-5.401649 -4.379517,-9.781174 -9.781158,-9.781174s-9.781174,4.379524 -9.781174,9.781174l0,9.781181c0,5.401665 4.379517,9.781189 9.781174,9.781189z"/>
   <path id="svg_5" fill="#FFDA44" d="m183.955215,139.677109c1.810135,3.137924 5.095993,4.890579 8.477219,4.890579c1.657288,0 3.343338,-0.420593 4.880814,-1.313721c4.680283,-2.698395 6.280136,-8.682648 3.577469,-13.358047l-4.890579,-8.468056c-2.698395,-4.675392 -8.687546,-6.2948 -13.358658,-3.577469c-4.680283,2.698387 -6.280136,8.68264 -3.577454,13.35865l4.89119,8.468063z"/>
   <path id="svg_6" fill="#FFDA44" d="m154.354309,169.278625l-8.472336,-4.890594c-4.69986,-2.703262 -10.660263,-1.098541 -13.36293,3.581741c-2.698395,4.680298 -1.093658,10.660263 3.581757,13.36293l8.472321,4.890594c1.542389,0.88887 3.223511,1.308838 4.880814,1.308838c3.381226,0 6.667099,-1.752655 8.482101,-4.890594c2.69841,-4.680283 1.093674,-10.659668 -3.581726,-13.362915z"/>
   <path id="svg_7" fill="#FFDA44" d="m143.517365,236.438049c0,-5.401657 -4.379517,-9.781189 -9.781189,-9.781189l-9.781166,0c-5.401665,0 -9.781181,4.379532 -9.781181,9.781189s4.379517,9.781174 9.781181,9.781174l9.781166,0c5.401672,0 9.781189,-4.379532 9.781189,-9.781174z"/>
   <path id="svg_8" fill="#FFDA44" d="m144.57312,286.652802l-8.472321,4.890594c-4.675415,2.703247 -6.280151,8.682617 -3.581757,13.362915c1.815033,3.137909 5.100891,4.890594 8.482117,4.890594c1.657303,0 3.33844,-0.420624 4.880814,-1.308838l8.472336,-4.890625c4.6754,-2.702637 6.280136,-8.682617 3.581726,-13.362915c-2.703247,-4.680298 -8.677719,-6.285004 -13.362915,-3.581726z"/>
   <path id="svg_9" fill="#FFDA44" d="m304.90686,143.253967c1.538086,0.893127 3.219208,1.313721 4.880798,1.313721c3.381256,0 6.667114,-1.752655 8.477203,-4.890579l4.890625,-8.468063c2.703278,-4.6754 1.103424,-10.660263 -3.577484,-13.35865c-4.675415,-2.713051 -10.664551,-1.10833 -13.358643,3.577469l-4.890594,8.468056c-2.702057,4.6754 -1.102203,10.659653 3.578094,13.358047z"/>
  </g>
  <path stroke="#000" id="svg_14" d="m35.938961,48.989601l130.569401,-38.189059l88.204422,-0.900045l-0.90004,49.9525l-149.407501,76.053818l-44.552238,125.55629l-46.352326,-1.350037l22.438283,-211.123466z" stroke-width="0" fill="#272c34"/>
 </g>
</svg>