<?xml version="1.0" encoding="iso-8859-1"?>
<!-- Generator: Adobe Illustrator 18.1.1, SVG Export Plug-In . SVG Version: 6.00 Build 0)  -->
<svg xmlns="http://www.w3.org/2000/svg" xmlns:xlink="http://www.w3.org/1999/xlink" version="1.1" id="Capa_1" x="0px" y="0px" viewBox="0 0 76 76" style="enable-background:new 0 0 76 76;" xml:space="preserve" width="200px" height="200px">
<g id="_x37_7_Essential_Icons_50_">
	<path id="Profile" d="M32,38c0,1.1-0.9,2-2,2H12c-1.1,0-2-0.9-2-2s0.9-2,2-2h18C31.1,36,32,36.9,32,38z M26,50H12c-1.1,0-2,0.9-2,2   s0.9,2,2,2h14c1.1,0,2-0.9,2-2S27.1,50,26,50z M30,22H12c-1.1,0-2,0.9-2,2s0.9,2,2,2h18c1.1,0,2-0.9,2-2S31.1,22,30,22z M76,14v48   c0,1.1-0.9,2-2,2H2c-1.1,0-2-0.9-2-2V14c0-1.1,0.9-2,2-2h72C75.1,12,76,12.9,76,14z M72,16H4v44h68V16z M65.9,52c0,1.1-0.9,2-2,2   H36c-1.1,0-2-0.9-2-2c0-6.6,3.9-12.2,9.6-14.7c-1.9-1.9-3.2-4.5-3.2-7.3c0-5.3,4.4-10,9.5-10s9.5,4.7,9.5,10c0,2.8-1.2,5.4-3.2,7.3   C61.9,39.8,65.9,45.4,65.9,52z M44.4,30c0,2.8,2.4,6,5.5,6s5.5-3.2,5.5-6s-2.4-6-5.5-6C46.8,24,44.4,27.2,44.4,30z M61.8,50   c-0.9-5.7-5.9-10-11.8-10s-10.8,4.3-11.8,10H61.8z" fill="#FFDA44"/>
</g>
<g>
</g>
<g>
</g>
<g>
</g>
<g>
</g>
<g>
</g>
<g>
</g>
<g>
</g>
<g>
</g>
<g>
</g>
<g>
</g>
<g>
</g>
<g>
</g>
<g>
</g>
<g>
</g>
<g>
</g>
</svg>
